# xmcd
#
# Track frame offsets:
#	150
#	17485
#	33603
#	49503
#	69058
#	88390
#	109253
#	125145
#	140788
#	157835
#
# Disc length: 2343 seconds
#
# Revision: 3
# Processed by: cddbd v1.5.2PL0 Copyright (c) Steve Scherf et al.
# Submitted via: EasyCDDAExtractor 15.3.0.1
#
DISCID=8509250a
DTITLE=Emmanuel - Tu Y Yo...
DYEAR=1982
DGENRE=Latin
TTITLE0=Tu Y Yo
TTITLE1=Y Ahora
TTITLE2=Ven Con El Alma Desnuda
TTITLE3=Hoy No Sabes A Mi
TTITLE4=De Pronto Amor
TTITLE5=Esto Me Duele Mas Que A Ti
TTITLE6=Si Te Acercas Hacia El Sur
TTITLE7=Sola
TTITLE8=Te Voy A Aprovechar
TTITLE9=Por Que Te Vas
EXTD=YEAR: 1982 ID3G:  86
EXTT0=
EXTT1=
EXTT2=
EXTT3=
EXTT4=
EXTT5=
EXTT6=
EXTT7=
EXTT8=
EXTT9=
PLAYORDER=
